<svg width="586" height="184" viewBox="0 0 586 184" fill="none" xmlns="http://www.w3.org/2000/svg">
<path opacity="0.15" fill-rule="evenodd" clip-rule="evenodd" d="M0 0L586 0C585.93 36.9263 585.93 96.5581 586 178.895C423.443 194.681 441.255 163.894 293 168.09C144.745 172.286 138.201 190.548 0 168.09C0.450769 122.077 0.450769 66.0471 0 0Z" fill="#C4C4C4"/>
<path fill-rule="evenodd" clip-rule="evenodd" d="M586.902 0H170.075H0.451092C0.451092 83.4804 0.451092 136.742 0.451092 159.784C36.6906 155.34 69.9536 148.85 155.389 155.34C240.824 161.829 270.992 187.785 395.18 163.179C477.972 146.774 541.879 147.981 586.902 166.8V0Z" fill="url(#paint0_radial_2_3)"/>
<defs>
<radialGradient id="paint0_radial_2_3" cx="0" cy="0" r="1" gradientUnits="userSpaceOnUse" gradientTransform="translate(790.26 -368.018) rotate(-39.2336) scale(377.633 210.754)">
<stop stop-color="#FF0800"/>
<stop offset="0.029125" stop-color="#0269FD"/>
<stop offset="0.0450534" stop-color="#0369FC"/>
<stop offset="0.0600516" stop-color="#AC2925"/>
<stop offset="0.254822" stop-color="#AC2925"/>
<stop offset="1" stop-color="#AC2925"/>
</radialGradient>
</defs>
</svg>
